<svg viewBox="0 0 64 64" fill="none" xmlns="http://www.w3.org/2000/svg">
  <path d="M32 56c-1.5 0-3-.7-12-10C12 38 8 32 8 26c0-7 5-12 12-12 4 0 8 2 12 7 4-5 8-7 12-7 7 0 12 5 12 12 0 6-4 12-12 20-9 9.3-10.5 10-12 10z" stroke="currentColor" stroke-width="2" stroke-linejoin="round"/>
  <ellipse cx="25" cy="36" rx="3" ry="3.5" fill="currentColor"/>
  <ellipse cx="39" cy="36" rx="3" ry="3.5" fill="currentColor"/>
  <ellipse cx="29" cy="28" rx="2.5" ry="3" fill="currentColor"/>
  <ellipse cx="35" cy="28" rx="2.5" ry="3" fill="currentColor"/>
  <ellipse cx="32" cy="43" rx="4" ry="4.5" fill="currentColor"/>
</svg>