<svg viewBox="0 0 64 64" fill="none" xmlns="http://www.w3.org/2000/svg">
  <path d="M36 20a14 14 0 1 1-8 0" stroke="currentColor" stroke-width="0"/>
  <circle cx="32" cy="34" r="12" stroke="currentColor" stroke-width="2"/>
  <circle cx="32" cy="34" r="5" stroke="currentColor" stroke-width="2"/>
  <path d="M32 22v-2l-3-1v-3h6v3l-3 1z" fill="currentColor"/>
  <path d="M43.5 28.5l1.4-1.4 2.8 1v-4.2l-2.8 1-1.4-1.4z" fill="currentColor"/>
  <path d="M44 34h2l1-3h3v6h-3l-1-3z" fill="currentColor"/>
  <path d="M43.5 39.5l1.4 1.4 2.8-1v4.2l-2.8-1-1.4 1.4z" fill="currentColor"/>
  <path d="M32 46v2l3 1v3h-6v-3l3-1z" fill="currentColor"/>
  <path d="M20.5 39.5l-1.4 1.4-2.8-1v4.2l2.8-1 1.4 1.4z" fill="currentColor"/>
  <path d="M20 34h-2l-1 3h-3v-6h3l1 3z" fill="currentColor"/>
  <path d="M20.5 28.5l-1.4-1.4-2.8 1v-4.2l2.8 1 1.4-1.4z" fill="currentColor"/>
  <path d="M10 6l5 5-3 3 8 8 3-3 5 5-6 6L4 12z" stroke="currentColor" stroke-width="2" stroke-linejoin="round" fill="none"/>
</svg>